<?xml version="1.0" standalone="no"?><!DOCTYPE svg PUBLIC "-//W3C//DTD SVG 1.1//EN" "http://www.w3.org/Graphics/SVG/1.1/DTD/svg11.dtd"><svg t="1684008949949" class="icon" viewBox="0 0 1024 1024" version="1.1" xmlns="http://www.w3.org/2000/svg" p-id="1545" id="mx_n_1684008949950" width="16" height="16" xmlns:xlink="http://www.w3.org/1999/xlink"><path d="M512 189.866667l83.2 168.533333c14.933333 29.866667 44.8 51.2 78.933333 57.6l185.6 27.733333-134.4 130.133334c-23.466667 23.466667-36.266667 57.6-29.866666 91.733333l32 183.466667-164.266667-87.466667c-14.933333-8.533333-32-12.8-49.066667-12.8-17.066667 0-34.133333 4.266667-49.066666 12.8l-166.4 85.333333 32-183.466666c6.4-34.133333-6.4-68.266667-29.866667-91.733334l-134.4-130.133333 185.6-27.733333c34.133333-4.266667 64-25.6 78.933333-57.6L512 189.866667m0-106.666667c-12.8 0-25.6 6.4-32 21.333333l-110.933333 221.866667c-6.4 10.666667-14.933333 19.2-27.733334 19.2L96 384c-29.866667 4.266667-42.666667 40.533333-21.333333 61.866667l177.066666 172.8c8.533333 8.533333 12.8 21.333333 10.666667 32l-42.666667 245.333333c-4.266667 23.466667 14.933333 42.666667 36.266667 42.666667 6.4 0 10.666667-2.133333 17.066667-4.266667l219.733333-115.2c6.4-2.133333 10.666667-4.266667 17.066667-4.266667s12.8 2.133333 17.066666 4.266667L746.666667 934.4c6.4 2.133333 10.666667 4.266667 17.066666 4.266667 21.333333 0 40.533333-19.2 36.266667-42.666667l-42.666667-245.333333c-2.133333-12.8 2.133333-23.466667 10.666667-32l177.066667-172.8c21.333333-21.333333 10.666667-57.6-21.333334-61.866667L682.666667 347.733333c-12.8-2.133333-21.333333-8.533333-27.733334-19.2L544 104.533333c-6.4-12.8-19.2-21.333333-32-21.333333z" fill="#000000" p-id="1546"></path></svg>